# xmcd
#
# Track frame offsets: 
#        150
#        19725
#        43625
#        63245
#        81472
#
# Disc length: 1396 seconds
#
# Revision: 1
# Processed by: cddbd v1.5.2PL0 Copyright (c) Steve Scherf et al.
# Submitted via: ExactAudioCopy v0.99pb5
#
DISCID=39057205
DTITLE=Jodeci - Freek'n You [CDS)
DYEAR=1995
DGENRE=R&B
TTITLE0=Freek'n You (Radio Edit)
TTITLE1=Freek'n You (Pt. 1)
TTITLE2=Freek'n You (Funky Freeky Mix)
TTITLE3=Freek'n You (Freekstrumental Mix)
TTITLE4=Freek'n You (Freek-A-Pella Mix)
EXTD=
EXTT0=
EXTT1=
EXTT2=
EXTT3=
EXTT4=
PLAYORDER=
